<?xml version="1.0" standalone="no"?>
<!DOCTYPE svg PUBLIC "-//W3C//DTD SVG 20010904//EN"
 "http://www.w3.org/TR/2001/REC-SVG-20010904/DTD/svg10.dtd">
<svg version="1.0" xmlns="http://www.w3.org/2000/svg"
 width="2480.000000pt" height="3508.000000pt" viewBox="0 0 2480.000000 3508.000000"
 preserveAspectRatio="xMidYMid meet">

<g transform="translate(0.000000,3508.000000) scale(0.100000,-0.100000)"
fill="#000000" stroke="none">
<path d="M9180 23342 c-11 -12 -20 -25 -20 -30 0 -4 -14 -21 -30 -39 -17 -18
-30 -36 -30 -40 0 -4 -14 -22 -30 -40 -17 -18 -30 -36 -30 -41 0 -5 -7 -16
-16 -23 -9 -8 -47 -54 -84 -104 -37 -50 -75 -97 -85 -105 -9 -8 -35 -41 -58
-75 -40 -59 -68 -95 -157 -200 -94 -111 -157 -192 -217 -280 -22 -34 -49 -67
-58 -75 -16 -13 -43 -48 -218 -278 -32 -43 -78 -97 -101 -122 -24 -25 -53 -61
-66 -80 -40 -60 -130 -179 -140 -185 -6 -4 -43 -49 -83 -101 -39 -53 -85 -112
-100 -132 -16 -20 -43 -53 -61 -72 -18 -19 -48 -57 -67 -85 -53 -80 -132 -181
-205 -264 -22 -25 -67 -81 -100 -124 -55 -73 -74 -98 -171 -219 -21 -25 -78
-100 -128 -165 -49 -65 -108 -140 -132 -168 -24 -27 -68 -79 -98 -114 -30 -35
-55 -69 -55 -76 0 -8 -21 -37 -48 -67 -53 -59 -71 -82 -172 -215 -38 -50 -74
-95 -80 -98 -5 -3 -55 -66 -110 -140 -55 -74 -105 -137 -110 -140 -6 -3 -43
-49 -83 -101 -39 -53 -98 -130 -130 -172 -32 -43 -73 -93 -91 -112 -18 -19
-52 -62 -74 -95 -22 -33 -54 -76 -71 -95 -17 -19 -31 -38 -31 -43 0 -4 -20
-27 -44 -52 -25 -24 -53 -61 -63 -82 -9 -20 -39 -59 -65 -86 -26 -27 -48 -53
-48 -58 0 -5 -22 -32 -50 -60 -27 -28 -50 -55 -50 -60 0 -5 -13 -23 -30 -41
-16 -17 -30 -35 -30 -39 0 -5 -18 -28 -40 -50 -22 -23 -40 -48 -40 -55 0 -8
-4 -14 -8 -14 -5 0 -15 -12 -23 -27 -8 -15 -31 -45 -51 -66 -21 -22 -38 -43
-38 -48 0 -5 -18 -28 -40 -50 -22 -23 -40 -45 -40 -50 0 -5 -18 -28 -40 -51
-22 -24 -40 -46 -40 -50 0 -4 -22 -31 -50 -60 -27 -29 -50 -56 -50 -61 0 -4
-13 -22 -30 -40 -16 -18 -30 -37 -30 -43 0 -6 -7 -17 -15 -24 -13 -11 -15
-347 -13 -2929 2 -1604 5 -2617 8 -2252 4 519 8 665 18 669 9 3 12 -139 12
-685 l0 -690 23 -21 23 -22 3001 0 3000 0 59 31 c32 17 101 53 152 81 50 27
97 46 104 42 6 -4 8 -3 4 4 -3 6 18 22 51 39 32 16 96 50 143 75 111 59 239
128 370 196 209 109 286 150 330 174 25 14 113 60 195 103 83 42 155 80 160
85 6 4 73 40 150 80 77 40 177 93 222 117 46 25 88 41 94 37 7 -4 9 -3 5 4 -4
7 37 32 106 66 62 30 165 82 228 116 63 34 162 86 220 117 58 31 139 74 180
96 41 22 111 59 155 82 227 120 368 195 580 305 77 40 145 76 150 80 6 4 78
42 160 85 83 43 155 81 160 85 6 4 82 44 170 90 88 46 165 86 170 90 6 4 71
39 145 77 74 39 173 91 220 115 47 25 148 78 225 118 77 40 150 79 161 86 12
7 80 43 150 80 71 37 143 74 159 84 17 10 93 50 170 90 77 40 145 76 150 80 6
4 87 47 180 95 94 48 197 102 230 120 33 18 119 63 190 100 72 37 135 71 140
75 6 4 87 47 180 95 94 49 175 91 180 95 17 13 286 152 425 220 36 18 94 48
130 67 36 20 112 60 170 91 58 30 132 69 165 87 62 33 174 93 330 175 50 26
126 67 170 90 44 24 134 71 200 105 66 34 155 80 198 103 194 105 234 126 322
172 52 27 129 68 172 91 43 24 92 49 108 57 58 28 75 52 75 101 0 25 -4 51 -8
57 -4 6 -59 17 -122 24 -63 6 -173 18 -245 26 -71 7 -220 23 -330 34 -110 11
-261 27 -335 35 -74 8 -202 21 -285 30 -82 9 -208 22 -280 30 -71 8 -197 21
-280 30 -82 9 -211 23 -285 31 -74 8 -200 21 -280 30 -80 8 -203 21 -275 29
-71 7 -197 21 -280 30 -196 21 -392 41 -565 60 -77 8 -203 22 -280 30 -77 8
-202 22 -277 29 -76 8 -205 22 -288 31 -82 9 -212 23 -287 31 -76 8 -201 21
-278 29 -77 8 -203 22 -280 30 -77 8 -202 22 -277 30 -318 33 -313 32 -313 50
0 8 33 39 73 68 39 29 128 94 197 145 203 148 234 171 484 356 131 98 245 180
252 183 7 3 116 81 241 174 125 93 237 175 248 183 11 8 85 63 165 122 80 59
174 128 209 153 35 25 148 108 250 183 223 165 210 156 330 243 53 39 161 118
241 177 80 59 210 155 290 213 80 58 152 112 160 118 8 7 65 48 125 92 236
171 471 347 488 367 24 28 22 74 -6 102 -22 22 -32 23 -317 34 -162 7 -423 17
-580 22 -157 6 -406 14 -555 20 -148 5 -346 12 -440 15 -93 3 -206 8 -250 11
-44 2 -222 9 -395 14 -311 9 -509 16 -1256 45 -210 8 -390 15 -400 15 -16 0
-17 2 -4 10 11 7 0 10 -37 10 -29 0 -53 5 -53 10 0 6 -50 10 -130 10 -80 0
-130 4 -130 10 0 6 -135 10 -385 10 -252 0 -392 4 -408 11 -12 6 -29 20 -36
31 -12 20 9 44 331 367 189 190 486 491 659 669 172 177 502 512 731 745 229
232 430 440 446 462 16 22 91 101 167 175 216 212 235 235 235 280 0 29 -8 46
-37 79 l-38 41 -2938 3 -2938 2 -19 -23z m3920 -3647 c140 -8 374 -21 520 -30
145 -8 291 -17 325 -20 33 -3 143 -10 245 -15 102 -5 298 -17 435 -25 138 -8
369 -21 515 -30 396 -22 421 -25 458 -47 45 -28 65 -70 57 -122 -7 -49 -32
-81 -100 -127 -27 -19 -52 -37 -55 -40 -3 -3 -45 -35 -95 -70 -80 -58 -233
-169 -675 -491 -74 -54 -148 -108 -164 -121 -16 -12 -52 -38 -80 -58 -28 -20
-130 -93 -226 -164 -96 -71 -213 -155 -260 -187 -123 -84 -228 -159 -366 -262
-67 -50 -132 -98 -145 -106 -12 -8 -100 -73 -195 -143 l-173 -128 -123 15
c-68 9 -177 23 -243 31 -546 72 -605 78 -634 65 -14 -7 -60 -36 -101 -67 -102
-74 -511 -369 -649 -468 -62 -44 -208 -150 -326 -235 -118 -85 -250 -180 -292
-210 -64 -46 -133 -96 -258 -186 -11 -8 -110 -79 -220 -159 -110 -79 -246
-177 -303 -217 -57 -40 -108 -78 -115 -83 -7 -6 -34 -26 -62 -45 -43 -29 -123
-88 -161 -119 -6 -5 -42 -30 -80 -57 -38 -26 -97 -68 -131 -93 -34 -25 -101
-73 -148 -106 -120 -84 -271 -192 -740 -531 -148 -108 -281 -203 -295 -213
-14 -10 -56 -40 -95 -66 -38 -27 -128 -92 -200 -145 -128 -94 -264 -193 -498
-361 -65 -46 -162 -116 -215 -154 -53 -39 -107 -77 -118 -85 -35 -24 -308
-221 -454 -328 -133 -97 -317 -229 -395 -283 -22 -16 -83 -60 -135 -98 -199
-146 -199 -146 -252 -145 -43 0 -54 5 -86 37 l-37 37 0 366 0 365 3545 2869
c1950 1579 3545 2870 3545 2870 0 0 115 -7 255 -15z"/>
<path d="M13055 19670 c-3 -5 -1 -10 4 -10 6 0 11 5 11 10 0 6 -2 10 -4 10 -3
0 -8 -4 -11 -10z"/>
<path d="M14078 19603 c7 -3 16 -2 19 1 4 3 -2 6 -13 5 -11 0 -14 -3 -6 -6z"/>
<path d="M12468 17613 c7 -3 16 -2 19 1 4 3 -2 6 -13 5 -11 0 -14 -3 -6 -6z"/>
<path d="M13798 20463 c7 -3 16 -2 19 1 4 3 -2 6 -13 5 -11 0 -14 -3 -6 -6z"/>
<path d="M14488 20433 c7 -3 16 -2 19 1 4 3 -2 6 -13 5 -11 0 -14 -3 -6 -6z"/>
<path d="M16193 20373 c9 -2 23 -2 30 0 6 3 -1 5 -18 5 -16 0 -22 -2 -12 -5z"/>
<path d="M17496 20328 c3 -5 10 -6 15 -3 13 9 11 12 -6 12 -8 0 -12 -4 -9 -9z"/>
<path d="M17690 20320 c-8 -5 -10 -10 -5 -10 6 0 17 5 25 10 8 5 11 10 5 10
-5 0 -17 -5 -25 -10z"/>
<path d="M14600 17356 c0 -2 7 -7 16 -10 8 -3 12 -2 9 4 -6 10 -25 14 -25 6z"/>
<path d="M15265 17279 c-16 -6 -14 -8 13 -8 33 -1 41 4 20 12 -7 2 -22 1 -33
-4z"/>
<path d="M16757 17119 c7 -7 15 -10 18 -7 3 3 -2 9 -12 12 -14 6 -15 5 -6 -5z"/>
<path d="M17108 17083 c6 -2 18 -2 25 0 6 3 1 5 -13 5 -14 0 -19 -2 -12 -5z"/>
<path d="M17210 17069 c0 -5 5 -7 10 -4 6 3 10 8 10 11 0 2 -4 4 -10 4 -5 0
-10 -5 -10 -11z"/>
<path d="M17888 16993 c7 -3 16 -2 19 1 4 3 -2 6 -13 5 -11 0 -14 -3 -6 -6z"/>
<path d="M18005 16990 c-3 -5 -2 -10 4 -10 5 0 13 5 16 10 3 6 2 10 -4 10 -5
0 -13 -4 -16 -10z"/>
<path d="M18430 16940 c8 -5 20 -10 25 -10 6 0 3 5 -5 10 -8 5 -19 10 -25 10
-5 0 -3 -5 5 -10z"/>
<path d="M18498 16933 c7 -3 16 -2 19 1 4 3 -2 6 -13 5 -11 0 -14 -3 -6 -6z"/>
<path d="M18943 16883 c9 -2 23 -2 30 0 6 3 -1 5 -18 5 -16 0 -22 -2 -12 -5z"/>
<path d="M19000 16880 c0 -5 5 -10 10 -10 6 0 10 5 10 10 0 6 -4 10 -10 10 -5
0 -10 -4 -10 -10z"/>
<path d="M19358 16843 c6 -2 18 -2 25 0 6 3 1 5 -13 5 -14 0 -19 -2 -12 -5z"/>
<path d="M6317 11703 c821 -2 2165 -2 2985 0 821 1 150 2 -1492 2 -1642 0
-2313 -1 -1493 -2z"/>
</g>
</svg>
